# xmcd
#
# Track frame offsets: 
#        150
#        28827
#        52667
#        72025
#        107735
#        131480
#        150462
#        171697
#        197392
#        212622
#        238030
#        261325
#        284495
#        300020
#
# Disc length: 4364 seconds
#
# Revision: 5
# Processed by: cddbd v1.5.2PL0 Copyright (c) Steve Scherf et al.
# Submitted via: ExactAudioCopy v0.95b2
#
DISCID=bc110a0e
DTITLE=The Isley Brothers - Winner Takes All
DYEAR=1979
DGENRE=Soul
TTITLE0=I Wanna Be With You
TTITLE1=Liquid Love
TTITLE2=Winner Takes All
TTITLE3=Life In The City
TTITLE4=It's A  Disco Night
TTITLE5=(Can't You See) What You Do To Me?
TTITLE6=Let's Fall In Love
TTITLE7=How Lucky I Am
TTITLE8=You're The Key To My Heart
TTITLE9=You're Beside Me
TTITLE10=Let Me In Your Life
TTITLE11=Love Comes And Goes
TTITLE12=Go For What You Know
TTITLE13=Mind Over Matter
EXTD=
EXTT0=
EXTT1=
EXTT2=
EXTT3=
EXTT4=
EXTT5=
EXTT6=
EXTT7=
EXTT8=
EXTT9=
EXTT10=
EXTT11=
EXTT12=
EXTT13=
PLAYORDER=
